<svg xmlns="http://www.w3.org/2000/svg" viewBox="0 0 64 64" fill="none">
  <defs>
    <linearGradient id="g" x1="0" y1="0" x2="0" y2="1">
      <stop stop-color="#4271b8"/>
      <stop offset="1" stop-color="#2a4a80"/>
    </linearGradient>
  </defs>
  <rect width="64" height="64" fill="url(#g)"/>
  <path fill="#fff" d="M24.05 35.50Q20.83 35.50 18.23 34.35Q15.63 33.20 14.14 30.99Q12.64 28.78 12.64 25.70Q12.64 22.62 14.09 20.36Q15.54 18.11 18.14 16.87Q20.74 15.62 24.05 15.62Q25.02 15.62 25.91 15.76Q26.81 15.90 27.64 16.13L38.36 16.18L38.36 20.45Q36.15 20.50 33.92 19.83Q31.69 19.17 29.98 18.43L29.85 18.15Q31.41 18.94 32.68 20.06Q33.94 21.19 34.68 22.62Q35.41 24.04 35.41 25.84Q35.41 28.87 33.96 31.03Q32.52 33.20 29.96 34.35Q27.41 35.50 24.05 35.50M36.56 48.38L31.41 48.38L31.41 47.32Q31.41 45.06 30.08 44.14Q28.74 43.22 26.35 43.22L20.14 43.22Q18.30 43.22 16.99 42.92Q15.68 42.63 14.90 42.05Q14.11 41.48 13.75 40.72Q13.38 39.96 13.38 39.04Q13.38 37.20 14.51 36.28Q15.63 35.36 17.50 35.08Q19.36 34.81 21.43 34.99L24.05 35.50Q21.34 35.59 19.93 35.98Q18.53 36.37 18.53 37.52Q18.53 38.21 19.08 38.62Q19.63 39.04 20.65 39.04L27.18 39.04Q29.98 39.04 32.10 39.70Q34.22 40.37 35.39 41.96Q36.56 43.55 36.56 46.31L36.56 48.38M24.05 31.49Q25.89 31.49 27.32 30.80Q28.74 30.11 29.57 28.83Q30.40 27.54 30.40 25.70Q30.40 23.86 29.57 22.52Q28.74 21.19 27.32 20.50Q25.89 19.81 24.05 19.81Q22.26 19.81 20.81 20.50Q19.36 21.19 18.53 22.50Q17.70 23.81 17.70 25.70Q17.70 27.54 18.53 28.83Q19.36 30.11 20.78 30.80Q22.21 31.49 24.05 31.49"/>
  <rect x="41.36" y="29.04" width="10" height="10" fill="#fff"/>
</svg>
